<svg id="wavy_bus-25_single-01-converted" xmlns="http://www.w3.org/2000/svg" xmlns:xlink="http://www.w3.org/1999/xlink" viewBox="0 0 650 650" shape-rendering="geometricPrecision" text-rendering="geometricPrecision" width="650 height="650"><style>#wavy_bus-25_single-01-converted {float:right !important;}<![CDATA[#wavy_bus-25_single-01-converted-g2_to {animation: wavy_bus-25_single-01-converted-g2_to__to 5000ms linear infinite normal forwards}@keyframes wavy_bus-25_single-01-converted-g2_to__to { 0% {transform: translate(1438.166016px,1087.285156px)} 50% {transform: translate(1438.166016px,1213px)} 100% {transform: translate(1438.166016px,1087.285156px)} }#wavy_bus-25_single-01-converted-g7_tr {animation: wavy_bus-25_single-01-converted-g7_tr__tr 5000ms linear infinite normal forwards}@keyframes wavy_bus-25_single-01-converted-g7_tr__tr { 0% {transform: translate(824.353516px,1556.929688px) rotate(0deg)} 50% {transform: translate(824.353516px,1556.929688px) rotate(-5deg)} 100% {transform: translate(824.353516px,1556.929688px) rotate(0deg)} }#wavy_bus-25_single-01-converted-g11_tr {animation: wavy_bus-25_single-01-converted-g11_tr__tr 5000ms linear infinite normal forwards}@keyframes wavy_bus-25_single-01-converted-g11_tr__tr { 0% {transform: translate(959.560547px,1326.251953px) rotate(0deg)} 50% {transform: translate(959.560547px,1326.251953px) rotate(-5deg)} 100% {transform: translate(959.560547px,1326.251953px) rotate(0deg)} }#wavy_bus-25_single-01-converted-right-arm_tr {animation: wavy_bus-25_single-01-converted-right-arm_tr__tr 5000ms linear infinite normal forwards}@keyframes wavy_bus-25_single-01-converted-right-arm_tr__tr { 0% {transform: translate(688.097656px,1429.351563px) rotate(0deg)} 20% {transform: translate(688.097656px,1429.351563px) rotate(8deg)} 30% {transform: translate(688.097656px,1429.351563px) rotate(0deg)} 67.600000% {transform: translate(688.097656px,1429.351563px) rotate(0deg)} 70% {transform: translate(688.097656px,1429.351563px) rotate(-5deg)} 74% {transform: translate(688.097656px,1429.351563px) rotate(0deg)} 86% {transform: translate(688.097656px,1429.351563px) rotate(5deg)} 100% {transform: translate(688.097656px,1429.351563px) rotate(0deg)} }]]></style><defs><filter id="wavy_bus-25_single-01-converted-g1-filter" x="-400%" width="600%" y="-400%" height="600%"><feComponentTransfer id="wavy_bus-25_single-01-converted-g1-filter-invert-0" result="result"><feFuncR id="wavy_bus-25_single-01-converted-g1-filter-invert-0-R" type="table" tableValues="0 1"/><feFuncG id="wavy_bus-25_single-01-converted-g1-filter-invert-0-G" type="table" tableValues="0 1"/><feFuncB id="wavy_bus-25_single-01-converted-g1-filter-invert-0-B" type="table" tableValues="0 1"/></feComponentTransfer></filter><linearGradient id="wavy_bus-25_single-01-converted-path2-fill" x1="2618.930220" y1="37.939230" x2="494.409860" y2="4286.970900" spreadMethod="pad" gradientUnits="userSpaceOnUse"><stop id="wavy_bus-25_single-01-converted-path2-fill-0" offset="0.360000%" stop-color="rgba(141,148,227,0.54)"/><stop id="wavy_bus-25_single-01-converted-path2-fill-1" offset="100%" stop-color="rgba(44,175,252,0.87)"/><stop id="wavy_bus-25_single-01-converted-path2-fill-2" offset="100%" stop-color="rgb(149,113,246)"/></linearGradient><linearGradient id="wavy_bus-25_single-01-converted-path4-fill" x1="1700.070160" y1="-94.758070" x2="2069.213090" y2="1381.818430" spreadMethod="pad" gradientUnits="userSpaceOnUse"><stop id="wavy_bus-25_single-01-converted-path4-fill-0" offset="0.360000%" stop-color="rgb(141,214,227)"/><stop id="wavy_bus-25_single-01-converted-path4-fill-1" offset="100%" stop-color="rgb(149,113,246)"/></linearGradient><linearGradient id="wavy_bus-25_single-01-converted-path9-fill" x1="1155.034400" y1="2541.874990" x2="1417.888460" y2="2943.887250" spreadMethod="pad" gradientUnits="userSpaceOnUse"><stop id="wavy_bus-25_single-01-converted-path9-fill-0" offset="0.360000%" stop-color="rgb(38,38,79)"/><stop id="wavy_bus-25_single-01-converted-path9-fill-1" offset="100%" stop-color="rgb(68,75,140)"/></linearGradient><linearGradient id="wavy_bus-25_single-01-converted-path11-fill" x1="1287.151300" y1="2580.426590" x2="1345.033700" y2="2580.426590" spreadMethod="pad" gradientUnits="userSpaceOnUse"><stop id="wavy_bus-25_single-01-converted-path11-fill-0" offset="0.360000%" stop-color="rgb(38,38,79)"/><stop id="wavy_bus-25_single-01-converted-path11-fill-1" offset="100%" stop-color="rgb(68,75,140)"/></linearGradient><linearGradient id="wavy_bus-25_single-01-converted-path12-fill" x1="835.874180" y1="2556.294480" x2="1026.819150" y2="2307.486990" spreadMethod="pad" gradientUnits="userSpaceOnUse"><stop id="wavy_bus-25_single-01-converted-path12-fill-0" offset="0%" stop-color="rgb(49,25,68)"/><stop id="wavy_bus-25_single-01-converted-path12-fill-1" offset="100%" stop-color="rgb(160,57,118)"/></linearGradient><linearGradient id="wavy_bus-25_single-01-converted-path13-fill" x1="1263.372550" y1="2128.311150" x2="995.294830" y2="1417.694020" spreadMethod="pad" gradientUnits="userSpaceOnUse"><stop id="wavy_bus-25_single-01-converted-path13-fill-0" offset="0%" stop-color="rgb(49,25,68)"/><stop id="wavy_bus-25_single-01-converted-path13-fill-1" offset="100%" stop-color="rgb(160,57,118)"/></linearGradient><linearGradient id="wavy_bus-25_single-01-converted-path14-fill" x1="1346.947340" y1="2346.893600" x2="1349.028320" y2="2523.786920" spreadMethod="pad" gradientUnits="userSpaceOnUse"><stop id="wavy_bus-25_single-01-converted-path14-fill-0" offset="0%" stop-color="rgb(49,25,68)"/><stop id="wavy_bus-25_single-01-converted-path14-fill-1" offset="100%" stop-color="rgb(160,57,118)"/></linearGradient><linearGradient id="wavy_bus-25_single-01-converted-path15-fill" x1="2044.746470" y1="3016.354460" x2="1893.845230" y2="3016.354460" spreadMethod="pad" gradientUnits="userSpaceOnUse"><stop id="wavy_bus-25_single-01-converted-path15-fill-0" offset="0%" stop-color="rgb(49,25,68)"/><stop id="wavy_bus-25_single-01-converted-path15-fill-1" offset="100%" stop-color="rgb(107,57,118)"/></linearGradient><linearGradient id="wavy_bus-25_single-01-converted-path16-fill" x1="1940.772470" y1="3007.781930" x2="1815.881580" y2="2633.108200" spreadMethod="pad" gradientUnits="userSpaceOnUse"><stop id="wavy_bus-25_single-01-converted-path16-fill-0" offset="0%" stop-color="rgb(255,196,68)"/><stop id="wavy_bus-25_single-01-converted-path16-fill-1" offset="99.640000%" stop-color="rgb(243,111,86)"/></linearGradient><linearGradient id="wavy_bus-25_single-01-converted-path17-fill" x1="1763.944030" y1="3080.134400" x2="1613.042480" y2="3080.134400" spreadMethod="pad" gradientUnits="userSpaceOnUse"><stop id="wavy_bus-25_single-01-converted-path17-fill-0" offset="0%" stop-color="rgb(49,25,68)"/><stop id="wavy_bus-25_single-01-converted-path17-fill-1" offset="100%" stop-color="rgb(107,57,118)"/></linearGradient><linearGradient id="wavy_bus-25_single-01-converted-path18-fill" x1="1659.969550" y1="3071.562050" x2="1535.077410" y2="2696.884580" spreadMethod="pad" gradientUnits="userSpaceOnUse"><stop id="wavy_bus-25_single-01-converted-path18-fill-0" offset="0%" stop-color="rgb(255,196,68)"/><stop id="wavy_bus-25_single-01-converted-path18-fill-1" offset="99.640000%" stop-color="rgb(243,111,86)"/></linearGradient><linearGradient id="wavy_bus-25_single-01-converted-path19-fill" x1="1309.492550" y1="2449.623890" x2="1835.937090" y2="2506.120360" spreadMethod="pad" gradientUnits="userSpaceOnUse"><stop id="wavy_bus-25_single-01-converted-path19-fill-0" offset="0.360000%" stop-color="rgb(38,38,79)"/><stop id="wavy_bus-25_single-01-converted-path19-fill-1" offset="100%" stop-color="rgb(68,75,140)"/></linearGradient><linearGradient id="wavy_bus-25_single-01-converted-path20-fill" x1="1241.205900" y1="2592.087040" x2="1611.472600" y2="2631.822960" spreadMethod="pad" gradientUnits="userSpaceOnUse"><stop id="wavy_bus-25_single-01-converted-path20-fill-0" offset="0.360000%" stop-color="rgb(38,38,79)"/><stop id="wavy_bus-25_single-01-converted-path20-fill-1" offset="100%" stop-color="rgb(68,75,140)"/></linearGradient><linearGradient id="wavy_bus-25_single-01-converted-path21-fill" x1="1491.324770" y1="1909.516250" x2="1603.126400" y2="1767.949310" spreadMethod="pad" gradientUnits="userSpaceOnUse"><stop id="wavy_bus-25_single-01-converted-path21-fill-0" offset="0%" stop-color="rgb(255,144,133)"/><stop id="wavy_bus-25_single-01-converted-path21-fill-1" offset="100%" stop-color="rgb(251,111,187)"/></linearGradient><linearGradient id="wavy_bus-25_single-01-converted-path22-fill" x1="1586.054210" y1="2192.485620" x2="1009.168330" y2="1642.079170" spreadMethod="pad" gradientUnits="userSpaceOnUse"><stop id="wavy_bus-25_single-01-converted-path22-fill-0" offset="0%" stop-color="rgb(255,144,133)"/><stop id="wavy_bus-25_single-01-converted-path22-fill-1" offset="100%" stop-color="rgb(251,111,187)"/></linearGradient><linearGradient id="wavy_bus-25_single-01-converted-path23-fill" x1="1190.456070" y1="2179.474870" x2="1440.407600" y2="1862.977920" spreadMethod="pad" gradientUnits="userSpaceOnUse"><stop id="wavy_bus-25_single-01-converted-path23-fill-0" offset="0%" stop-color="rgb(255,144,133)"/><stop id="wavy_bus-25_single-01-converted-path23-fill-1" offset="100%" stop-color="rgb(251,111,187)"/></linearGradient><linearGradient id="wavy_bus-25_single-01-converted-path24-fill" x1="1282.196924" y1="1727.860435" x2="1410.376875" y2="1404.555091" spreadMethod="pad" gradientUnits="userSpaceOnUse"><stop id="wavy_bus-25_single-01-converted-path24-fill-0" offset="0%" stop-color="rgb(255,196,68)"/><stop id="wavy_bus-25_single-01-converted-path24-fill-1" offset="99.640000%" stop-color="rgb(243,111,86)"/></linearGradient><linearGradient id="wavy_bus-25_single-01-converted-path26-fill" x1="1324.537839" y1="1313.774670" x2="1167.005369" y2="2082.002360" spreadMethod="pad" gradientUnits="userSpaceOnUse"><stop id="wavy_bus-25_single-01-converted-path26-fill-0" offset="0%" stop-color="rgb(255,196,68)"/><stop id="wavy_bus-25_single-01-converted-path26-fill-1" offset="99.640000%" stop-color="rgb(243,111,86)"/></linearGradient><linearGradient id="wavy_bus-25_single-01-converted-path28-fill" x1="1388.452399" y1="1435.456909" x2="1350.974455" y2="1534.180575" spreadMethod="pad" gradientUnits="userSpaceOnUse"><stop id="wavy_bus-25_single-01-converted-path28-fill-0" offset="0%" stop-color="rgb(255,196,68)"/><stop id="wavy_bus-25_single-01-converted-path28-fill-1" offset="100%" stop-color="rgb(243,111,86)"/></linearGradient><linearGradient id="wavy_bus-25_single-01-converted-polygon31-fill" x1="1286.440470" y1="1799.323450" x2="1297.789070" y2="1747.624460" spreadMethod="pad" gradientUnits="userSpaceOnUse"><stop id="wavy_bus-25_single-01-converted-polygon31-fill-0" offset="0.360000%" stop-color="rgb(38,38,79)"/><stop id="wavy_bus-25_single-01-converted-polygon31-fill-1" offset="100%" stop-color="rgb(68,75,140)"/></linearGradient><linearGradient id="wavy_bus-25_single-01-converted-polygon32-fill" x1="903.631980" y1="1691.961570" x2="1426.896880" y2="1691.961570" spreadMethod="pad" gradientUnits="userSpaceOnUse"><stop id="wavy_bus-25_single-01-converted-polygon32-fill-0" offset="0.360000%" stop-color="rgb(38,38,79)"/><stop id="wavy_bus-25_single-01-converted-polygon32-fill-1" offset="100%" stop-color="rgb(68,75,140)"/></linearGradient><linearGradient id="wavy_bus-25_single-01-converted-path33-fill" x1="1958.683950" y1="1933.743490" x2="1906.077700" y2="1808.490470" spreadMethod="pad" gradientUnits="userSpaceOnUse"><stop id="wavy_bus-25_single-01-converted-path33-fill-0" offset="0.360000%" stop-color="rgb(38,38,79)"/><stop id="wavy_bus-25_single-01-converted-path33-fill-1" offset="100%" stop-color="rgb(68,75,140)"/></linearGradient><linearGradient id="wavy_bus-25_single-01-converted-path34-fill" x1="1524.658200" y1="1871.540020" x2="2354.521060" y2="1871.540020" spreadMethod="pad" gradientUnits="userSpaceOnUse"><stop id="wavy_bus-25_single-01-converted-path34-fill-0" offset="0.360000%" stop-color="rgb(38,38,79)"/><stop id="wavy_bus-25_single-01-converted-path34-fill-1" offset="100%" stop-color="rgb(68,75,140)"/></linearGradient><linearGradient id="wavy_bus-25_single-01-converted-path35-fill" x1="1524.658200" y1="2020.938250" x2="2275.611500" y2="2020.938250" spreadMethod="pad" gradientUnits="userSpaceOnUse"><stop id="wavy_bus-25_single-01-converted-path35-fill-0" offset="0.360000%" stop-color="rgb(38,38,79)"/><stop id="wavy_bus-25_single-01-converted-path35-fill-1" offset="100%" stop-color="rgb(68,75,140)"/></linearGradient><linearGradient id="wavy_bus-25_single-01-converted-path36-fill" x1="1843.390610" y1="2161.913690" x2="1890.151840" y2="2182.789190" spreadMethod="pad" gradientUnits="userSpaceOnUse"><stop id="wavy_bus-25_single-01-converted-path36-fill-0" offset="0%" stop-color="rgb(68,75,140)"/><stop id="wavy_bus-25_single-01-converted-path36-fill-1" offset="99.640000%" stop-color="rgb(38,38,79)"/></linearGradient><linearGradient id="wavy_bus-25_single-01-converted-path37-fill" x1="1765.327720" y1="2170.072150" x2="1937.500900" y2="2170.072150" spreadMethod="pad" gradientUnits="userSpaceOnUse"><stop id="wavy_bus-25_single-01-converted-path37-fill-0" offset="0.360000%" stop-color="rgb(38,38,79)"/><stop id="wavy_bus-25_single-01-converted-path37-fill-1" offset="100%" stop-color="rgb(68,75,140)"/></linearGradient><linearGradient id="wavy_bus-25_single-01-converted-path38-fill" x1="1907.532140" y1="2035.255940" x2="2122.474230" y2="2035.255940" spreadMethod="pad" gradientUnits="userSpaceOnUse"><stop id="wavy_bus-25_single-01-converted-path38-fill-0" offset="0%" stop-color="rgb(68,75,140)"/><stop id="wavy_bus-25_single-01-converted-path38-fill-1" offset="99.640000%" stop-color="rgb(38,38,79)"/></linearGradient><linearGradient id="wavy_bus-25_single-01-converted-path39-fill" x1="1916.954440" y1="2035.195320" x2="2131.745440" y2="2035.195320" spreadMethod="pad" gradientUnits="userSpaceOnUse"><stop id="wavy_bus-25_single-01-converted-path39-fill-0" offset="0.360000%" stop-color="rgb(38,38,79)"/><stop id="wavy_bus-25_single-01-converted-path39-fill-1" offset="100%" stop-color="rgb(68,75,140)"/></linearGradient><linearGradient id="wavy_bus-25_single-01-converted-path40-fill" x1="1506.157970" y1="2276.224870" x2="929.274580" y2="1725.820790" spreadMethod="pad" gradientUnits="userSpaceOnUse"><stop id="wavy_bus-25_single-01-converted-path40-fill-0" offset="0%" stop-color="rgb(255,144,133)"/><stop id="wavy_bus-25_single-01-converted-path40-fill-1" offset="100%" stop-color="rgb(251,111,187)"/></linearGradient><linearGradient id="wavy_bus-25_single-01-converted-path41-fill" x1="1257.693440" y1="2148.388180" x2="1432.290650" y2="2148.388180" spreadMethod="pad" gradientUnits="userSpaceOnUse"><stop id="wavy_bus-25_single-01-converted-path41-fill-0" offset="0.360000%" stop-color="rgb(38,38,79)"/><stop id="wavy_bus-25_single-01-converted-path41-fill-1" offset="100%" stop-color="rgb(68,75,140)"/></linearGradient><linearGradient id="wavy_bus-25_single-01-converted-path42-fill" x1="1300.629290" y1="2092.809530" x2="1334.239290" y2="2208.729960" spreadMethod="pad" gradientUnits="userSpaceOnUse"><stop id="wavy_bus-25_single-01-converted-path42-fill-0" offset="0%" stop-color="rgb(255,196,68)"/><stop id="wavy_bus-25_single-01-converted-path42-fill-1" offset="99.640000%" stop-color="rgb(243,111,86)"/></linearGradient></defs><g id="wavy_bus-25_single-01-converted-g1" style="isolation:isolate" transform="matrix(-0.22000000000000 0 0 0.25000000000000 858.12992187500117 169.37646484500124)" filter="url(#wavy_bus-25_single-01-converted-g1-filter)"><g id="wavy_bus-25_single-01-converted-background"><path id="wavy_bus-25_single-01-converted-path1" d="M1265.097587,652.339838C1150.958336,812.829207,1284.789752,1073.021709,1115.425897,1193.722781C950.563004,1311.216661,748.033831,1118.628421,592.661662,1219.766867C362.174729,1369.798759,404.266065,2056.318337,741.249752,2482.865874C842.591853,2611.143232,927.269961,2661.054218,964.772740,2806.130069C1045.303443,3117.644889,762.278837,3302.953401,816.138575,3457.023518C937.410253,3803.933084,2802.477267,4095.030501,3550.825809,3052.453232C3900.334532,2565.526192,3952.629001,1862.399496,3640.353360,1328.371310C3076.076394,363.390165,1521.207893,292.231338,1265.097587,652.339838Z" transform="matrix(1 0 0 1 -519.50315856371128 -792.11618554139022)" fill="rgb(110,98,151)" stroke="none" stroke-width="1"/></g><g id="wavy_bus-25_single-01-converted-webpage"><g id="wavy_bus-25_single-01-converted-g2_to" transform="translate(1438.166016,1087.285156)"><g id="wavy_bus-25_single-01-converted-g2" transform="translate(-1438.166016,-1087.285156)"><path id="wavy_bus-25_single-01-converted-path2" d="M2875.879200,536.118300L915.547600,471.699600C849.811370,469.539300,796.297380,521.396000,796.297380,587.532800L796.297380,2498.166000C796.297380,2564.303500,849.811380,2615.632700,915.547600,2612.826100L2875.880500,2529.118700C2932.581200,2526.697200,2978.368000,2475.239100,2978.368000,2414.174400L2978.368000,650.055500C2978.368000,588.989800,2932.580900,537.981400,2875.879200,536.118300Z" transform="matrix(1 0 0 1 -449.16751098632813 -455.00003051757813)" fill="url(#wavy_bus-25_single-01-converted-path2-fill)" stroke="none" stroke-width="1"/><path id="wavy_bus-25_single-01-converted-path3" style="mix-blend-mode:soft-light" d="M915.548300,2574.749100C870.834700,2576.598100,834.483000,2541.654600,834.483000,2496.695600L834.483000,588.627600C834.483000,543.668600,870.834000,508.367800,915.547200,509.777300L2875.880200,571.561800C2914.503500,572.778600,2945.731200,607.502200,2945.731200,649.120800L2945.731200,2415.429700C2945.731200,2457.048700,2914.503900,2492.078400,2875.881200,2493.675600Z" transform="matrix(1 0 0 1 -449.16751098632813 -455.00003051757813)" opacity="0.74" fill="rgb(255,255,255)" stroke="none" stroke-width="1"/><path id="wavy_bus-25_single-01-converted-path4" d="M2875.880200,536.118300L915.548300,471.699600C849.812470,469.539300,796.297080,521.396000,796.297080,587.532800L796.297080,673.436200L2978.369300,729.371400L2978.369300,650.055100C2978.369300,588.989800,2932.582600,537.981400,2875.880200,536.118300Z" transform="matrix(1 0 0 1 -449.16751098632813 -455.00003051757813)" fill="url(#wavy_bus-25_single-01-converted-path4-fill)" stroke="none" stroke-width="1"/><path id="wavy_bus-25_single-01-converted-path5" d="M1008.325800,582.093000C1008.418460,592.300249,1004.347025,602.104383,997.050917,609.243244C989.754809,616.382105,979.864308,620.238997,969.661500,619.924000C948.072296,619.141421,930.955948,601.446287,930.891500,579.843000C930.797200,569.616912,934.882949,559.795812,942.202578,552.654048C949.522207,545.512284,959.440825,541.669319,969.661500,542.015100C991.028400,542.665300,1008.325800,560.608300,1008.325800,582.093000Z" transform="matrix(1 0 0 1 -449.16751098632813 -455.00003051757813)" fill="rgb(255,255,255)" stroke="none" stroke-width="1"/><path id="wavy_bus-25_single-01-converted-path6" d="M1143.287800,586.015100C1143.404725,596.149058,1139.386448,605.892970,1132.160097,612.998646C1124.933746,620.104321,1115.123552,623.957953,1104.993000,623.670400C1083.798300,623.083500,1066.593000,605.226700,1066.593000,583.786400C1066.474567,573.633765,1070.507107,563.873051,1077.756826,556.764494C1085.006546,549.655936,1094.844656,545.816080,1104.993000,546.134100C1126.155700,546.778400,1143.287800,564.633400,1143.287800,586.015100Z" transform="matrix(1 0 0 1 -449.16751098632813 -455.00003051757813)" fill="rgb(255,255,255)" stroke="none" stroke-width="1"/><path id="wavy_bus-25_single-01-converted-path7" d="M1276.966800,589.900000C1276.966800,611.180300,1259.996900,627.961500,1239.035200,627.380800C1218.041900,626.800100,1201.000500,609.030200,1201.000500,587.692300C1201.000500,566.354600,1218.041900,549.575100,1239.035200,550.214200C1259.996900,550.852000,1276.966800,568.619400,1276.966800,589.900000Z" transform="matrix(1 0 0 1 -449.16751098632813 -455.00003051757813)" fill="rgb(255,255,255)" stroke="none" stroke-width="1"/><g id="wavy_bus-25_single-01-converted-g3"><polygon id="wavy_bus-25_single-01-converted-polygon1" style="mix-blend-mode:soft-light" points="1521.566000,457.499000 486.133000,438.887000 486.133000,499.768000 1521.566000,516.153000 1521.566000,457.499000" opacity="0.74" fill="rgb(255,255,255)" stroke="none" stroke-width="1"/><polygon id="wavy_bus-25_single-01-converted-polygon2" style="mix-blend-mode:soft-light" points="2300.030000,471.491000 2300.030000,528.472000 2409.577000,530.205000 2409.577000,473.460000 2300.030000,471.491000" opacity="0.74" fill="rgb(255,255,255)" stroke="none" stroke-width="1"/></g><g id="wavy_bus-25_single-01-converted-g4" style="mix-blend-mode:soft-light"><polygon id="wavy_bus-25_single-01-converted-polygon3" points="705.036000,648.689000 486.133000,646.358000 486.133000,583.578000 705.036000,586.395000 705.036000,648.689000" fill="rgb(255,255,255)" stroke="none" stroke-width="1"/><polygon id="wavy_bus-25_single-01-converted-polygon4" points="1874.482000,661.141000 844.786000,650.177000 844.786000,588.192000 1874.482000,601.439000 1874.482000,661.141000" fill="rgb(255,255,255)" stroke="none" stroke-width="1"/><polygon id="wavy_bus-25_single-01-converted-polygon5" points="1058.201000,757.522000 844.786000,756.058000 844.786000,694.073000 1058.201000,696.010000 1058.201000,757.522000" fill="rgb(255,255,255)" stroke="none" stroke-width="1"/><polygon id="wavy_bus-25_single-01-converted-polygon6" points="2199.030000,765.348000 1194.468000,758.456000 1194.468000,697.246000 2199.030000,706.365000 2199.030000,765.348000" fill="rgb(255,255,255)" stroke="none" stroke-width="1"/><polygon id="wavy_bus-25_single-01-converted-polygon7" points="1058.201000,862.594000 844.786000,861.938000 844.786000,799.953000 1058.201000,801.082000 1058.201000,862.594000" fill="rgb(255,255,255)" stroke="none" stroke-width="1"/><polygon id="wavy_bus-25_single-01-converted-polygon8" points="2199.030000,866.100000 1194.468000,863.012000 1194.468000,801.803000 2199.030000,807.117000 2199.030000,866.100000" fill="rgb(255,255,255)" stroke="none" stroke-width="1"/><polygon id="wavy_bus-25_single-01-converted-polygon9" points="705.036000,967.918000 486.133000,968.075000 486.133000,905.295000 705.036000,905.623000 705.036000,967.918000" fill="rgb(255,255,255)" stroke="none" stroke-width="1"/><polygon id="wavy_bus-25_single-01-converted-polygon10" points="1874.482000,967.084000 844.786000,967.819000 844.786000,905.833000 1874.482000,907.381000 1874.482000,967.084000" fill="rgb(255,255,255)" stroke="none" stroke-width="1"/><polygon id="wavy_bus-25_single-01-converted-polygon11" points="1058.201000,1072.738000 844.786000,1073.699000 844.786000,1011.714000 1058.201000,1011.227000 1058.201000,1072.738000" fill="rgb(255,255,255)" stroke="none" stroke-width="1"/><polygon id="wavy_bus-25_single-01-converted-polygon12" points="2199.030000,1067.603000 1194.468000,1072.125000 1194.468000,1010.915000 2199.030000,1008.620000 2199.030000,1067.603000" fill="rgb(255,255,255)" stroke="none" stroke-width="1"/><polygon id="wavy_bus-25_single-01-converted-polygon13" points="1058.201000,1177.810000 844.786000,1179.579000 844.786000,1117.594000 1058.201000,1116.298000 1058.201000,1177.810000" fill="rgb(255,255,255)" stroke="none" stroke-width="1"/><polygon id="wavy_bus-25_single-01-converted-polygon14" points="2199.030000,1168.355000 1194.468000,1176.681000 1194.468000,1115.471000 2199.030000,1109.372000 2199.030000,1168.355000" fill="rgb(255,255,255)" stroke="none" stroke-width="1"/><polygon id="wavy_bus-25_single-01-converted-polygon15" points="1058.201000,1282.882000 844.786000,1285.460000 844.786000,1223.474000 1058.201000,1221.371000 1058.201000,1282.882000" fill="rgb(255,255,255)" stroke="none" stroke-width="1"/><polygon id="wavy_bus-25_single-01-converted-polygon16" points="2199.030000,1269.106000 1194.468000,1281.237000 1194.468000,1220.027000 2199.030000,1210.124000 2199.030000,1269.106000" fill="rgb(255,255,255)" stroke="none" stroke-width="1"/><polygon id="wavy_bus-25_single-01-converted-polygon17" points="1405.832000,1382.440000 1197.753000,1385.741000 1197.753000,1324.539000 1405.832000,1321.699000 1405.832000,1382.440000" fill="rgb(255,255,255)" stroke="none" stroke-width="1"/><polygon id="wavy_bus-25_single-01-converted-polygon18" points="2354.917000,1367.385000 1538.715000,1380.333000 1538.715000,1319.886000 2354.917000,1308.749000 2354.917000,1367.385000" fill="rgb(255,255,255)" stroke="none" stroke-width="1"/><polygon id="wavy_bus-25_single-01-converted-polygon19" points="705.036000,1499.966000 486.133000,1504.267000 486.133000,1441.488000 705.036000,1437.672000 705.036000,1499.966000" fill="rgb(255,255,255)" stroke="none" stroke-width="1"/><polygon id="wavy_bus-25_single-01-converted-polygon20" points="1874.482000,1476.987000 844.786000,1497.220000 844.786000,1435.235000 1874.482000,1417.285000 1874.482000,1476.987000" fill="rgb(255,255,255)" stroke="none" stroke-width="1"/><polygon id="wavy_bus-25_single-01-converted-polygon21" points="1058.201000,1598.099000 844.786000,1603.100000 844.786000,1541.116000 1058.201000,1536.587000 1058.201000,1598.099000" fill="rgb(255,255,255)" stroke="none" stroke-width="1"/><polygon id="wavy_bus-25_single-01-converted-polygon22" points="2199.030000,1571.361000 1194.468000,1594.905000 1194.468000,1533.695000 2199.030000,1512.379000 2199.030000,1571.361000" fill="rgb(255,255,255)" stroke="none" stroke-width="1"/><polygon id="wavy_bus-25_single-01-converted-polygon23" points="1058.201000,1703.171000 844.786000,1708.981000 844.786000,1646.996000 1058.201000,1641.659000 1058.201000,1703.171000" fill="rgb(255,255,255)" stroke="none" stroke-width="1"/><polygon id="wavy_bus-25_single-01-converted-polygon24" points="2199.030000,1672.113000 1194.468000,1699.461000 1194.468000,1638.252000 2199.030000,1613.131000 2199.030000,1672.113000" fill="rgb(255,255,255)" stroke="none" stroke-width="1"/><polygon id="wavy_bus-25_single-01-converted-polygon25" points="705.036000,1819.196000 486.133000,1825.984000 486.133000,1763.204000 705.036000,1756.900000 705.036000,1819.196000" fill="rgb(255,255,255)" stroke="none" stroke-width="1"/><polygon id="wavy_bus-25_single-01-converted-polygon26" points="1874.482000,1782.929000 844.786000,1814.861000 844.786000,1752.877000 1874.482000,1723.227000 1874.482000,1782.929000" fill="rgb(255,255,255)" stroke="none" stroke-width="1"/><polygon id="wavy_bus-25_single-01-converted-polygon27" points="1058.201000,1913.316000 844.786000,1920.742000 844.786000,1858.757000 1058.201000,1851.804000 1058.201000,1913.316000" fill="rgb(255,255,255)" stroke="none" stroke-width="1"/><polygon id="wavy_bus-25_single-01-converted-polygon28" points="2199.030000,1873.616000 1194.468000,1908.574000 1194.468000,1847.364000 2199.030000,1814.634000 2199.030000,1873.616000" fill="rgb(255,255,255)" stroke="none" stroke-width="1"/></g><g id="wavy_bus-25_single-01-converted-g5" style="mix-blend-mode:soft-light" display="none" opacity="0.5"><path id="wavy_bus-25_single-01-converted-path8" d="M2113.886100,1270.622400C1884.921900,937.455700,1488.612700,1043.458000,1237.906800,675.345700C1192.692500,608.958400,1162.013600,541.407600,1140.971500,479.107700L915.548300,471.700000C849.811770,469.540000,796.297380,521.396400,796.297380,587.533900L796.297380,2498.166300C796.297380,2564.303500,849.811380,2615.633400,915.547200,2612.826100L2804.084700,2532.184800C2760.821500,2469.789300,2384.009900,2238.674100,2286.669800,1883.827800C2197.650100,1559.315200,2252.026600,1471.630800,2113.886100,1270.622400Z" transform="matrix(1 0 0 1 -449.16751098632813 -455.00003051757813)" fill="rgb(255,255,255)" stroke="none" stroke-width="1"/></g></g></g></g><g id="wavy_bus-25_single-01-converted-person"><g id="wavy_bus-25_single-01-converted-g6"><ellipse id="wavy_bus-25_single-01-converted-ellipse1" rx="260.308000" ry="106.238000" transform="matrix(1 0 0 1 866.92499999999995 2347.46999999999980)" fill="rgb(255,255,255)" stroke="none" stroke-width="1"/><path id="wavy_bus-25_single-01-converted-path9" d="M1055.784900,2790.016000C1055.784900,2845.402000,1172.328300,2890.301500,1316.092900,2890.301500C1459.856400,2890.301500,1576.400500,2845.402000,1576.400500,2790.016000C1576.400500,2734.630000,1459.856400,2644.005300,1316.092900,2644.005300C1172.328300,2644.005300,1055.784900,2734.630000,1055.784900,2790.016000Z" transform="matrix(1 0 0 1 -449.16751098632813 -455.00003051757813)" fill="url(#wavy_bus-25_single-01-converted-path9-fill)" stroke="none" stroke-width="1"/><path id="wavy_bus-25_single-01-converted-path10" style="mix-blend-mode:multiply" d="M1055.784900,2790.014600C1055.784900,2734.628900,1172.328300,2644.005300,1316.092900,2644.005300C1382.472600,2644.005300,1443.014600,2663.344100,1488.995500,2689.594400C1492.214500,2696.337200,1493.714700,2703.041200,1493.105200,2709.406000C1490.119500,2740.569100,1439.295000,2759.726800,1410.122200,2766.045200C1336.656700,2781.958200,1300.779900,2738.027300,1240.204900,2739.701800C1202.756400,2740.736100,1150.860100,2759.549800,1089.305500,2839.227900C1067.999800,2824.687000,1055.784900,2807.905400,1055.784900,2790.014600Z" transform="matrix(1 0 0 1 -449.16751098632813 -455.00003051757813)" opacity="0.3" fill="rgb(235,239,242)" stroke="none" stroke-width="1"/><path id="wavy_bus-25_single-01-converted-path11" d="M1301.835100,2713.411900C1311.411455,2715.920589,1321.465229,2715.978399,1331.069800,2713.580000C1339.351321,2711.369656,1345.092524,2703.841816,1345.033700,2695.270600L1345.033700,2445.516200L1287.151300,2445.516200L1287.151300,2694.922500C1287.217236,2703.727055,1293.274210,2711.353816,1301.835100,2713.411900Z" transform="matrix(1 0 0 1 -449.16751098632813 -455.00003051757813)" fill="url(#wavy_bus-25_single-01-converted-path11-fill)" stroke="none" stroke-width="1"/><g id="wavy_bus-25_single-01-converted-g7_tr" transform="translate(824.353516,1556.929688) rotate(0)"><g id="wavy_bus-25_single-01-converted-g7" transform="translate(-824.353516,-1556.929688)"><path id="wavy_bus-25_single-01-converted-path12" d="M1621.939500,2372.539300L1533.513900,2316.641600C1529.836200,2295.757900,1528.663400,1559.234500,1359.444700,1490.638100C1290.630800,1462.741100,1110.824200,1496.455900,1070.184500,1498.270200C989.055700,1501.895700,931.184300,1504.481100,903.351200,1543.180300C867.611200,1592.874700,992.792200,2125.609000,980.379300,2267.755800C975.318900,2325.721400,962.446900,2351.464200,978.479500,2389.864900C997.685600,2435.865300,1042.225400,2461.364200,1076.856900,2475.716300C1118.252900,2499.754900,1190.332500,2534.011100,1285.533600,2542.354500C1445.889300,2556.407100,1565.604700,2487.619300,1606.772600,2461.299600C1625.080069,2455.528200,1638.834176,2440.306273,1642.726000,2421.509300C1646.672931,2402.449814,1638.391504,2382.939965,1621.939500,2372.539300Z" transform="matrix(1 0 0 1 -449.16751098632813 -455.00003051757813)" fill="url(#wavy_bus-25_single-01-converted-path12-fill)" stroke="none" stroke-width="1"/><path id="wavy_bus-25_single-01-converted-path13" d="M1052.354500,1509.949400C992.349900,1511.727000,955.061200,1511.028000,934.438000,1537.820300C912.790700,1565.943300,999.906400,2077.582600,1003.962800,2177.711100C1007.661500,2268.992400,991.565100,2305.086100,1021.065000,2355.673200C1021.065000,2355.673200,1036.054700,2381.379200,1059.718300,2400.687100C1143.342800,2468.921000,1359.094200,2468.095300,1449.900700,2325.641000C1522.346400,2211.992800,1426.902700,1556.803800,1341.783800,1501.373400C1300.082700,1474.216900,1290.510500,1502.894600,1052.354500,1509.949400Z" transform="matrix(1 0 0 1 -449.16751098632813 -455.00003051757813)" fill="url(#wavy_bus-25_single-01-converted-path13-fill)" stroke="none" stroke-width="1"/><path id="wavy_bus-25_single-01-converted-path14" d="M1628.371000,2322.340200L1539.945800,2266.440100C1539.945800,2266.440100,1303.091700,2188.570100,1083.944700,2298.364900C1059.436162,2310.811022,1044.034945,2336.007766,1044.134500,2363.495300C1044.135205,2384.556288,1056.785193,2403.556211,1076.216000,2411.680800C1114.445200,2437.781700,1189.080700,2480.875500,1291.965100,2492.153700C1455.529200,2510.084000,1577.227600,2435.185300,1613.204400,2411.099800C1631.511969,2405.327755,1645.266150,2390.105659,1649.158500,2371.308500C1653.105404,2352.249255,1644.823432,2332.739736,1628.371000,2322.340200Z" transform="matrix(1 0 0 1 -449.16751098632813 -455.00003051757813)" fill="url(#wavy_bus-25_single-01-converted-path14-fill)" stroke="none" stroke-width="1"/></g></g><g id="wavy_bus-25_single-01-converted-g8"><g id="wavy_bus-25_single-01-converted-g9"><path id="wavy_bus-25_single-01-converted-path15" d="M2013.815300,3016.309600L1938.314200,2970.942800L1904.240100,2970.942800C1904.240100,2970.942800,1892.632300,3014.150000,1893.949400,3016.309600C1909.130400,3041.186200,1979.816400,3060.112300,2023.925600,3061.677100C2031.249800,3061.936900,2041.468000,3061.975400,2044.108000,3056.667900C2048.580800,3047.678800,2028.602900,3028.821800,2013.815300,3016.309600Z" transform="matrix(1 0 0 1 -449.16751098632813 -455.00003051757813)" fill="url(#wavy_bus-25_single-01-converted-path15-fill)" stroke="none" stroke-width="1"/><path id="wavy_bus-25_single-01-converted-path16" d="M1936.978900,2921.438100C1936.853900,2947.870900,1937.982000,2966.518400,1944.600400,2974.719800C1949.257800,2980.493000,1904.485800,2993.484800,1904.240100,2970.942800C1904.078900,2956.104700,1901.747100,2930.655700,1899.375500,2923.182000Q1918.176200,2922.309900,1936.978900,2921.438100Z" transform="matrix(1 0 0 1 -449.16751098632813 -455.00003051757813)" fill="url(#wavy_bus-25_single-01-converted-path16-fill)" stroke="none" stroke-width="1"/></g><g id="wavy_bus-25_single-01-converted-g10"><path id="wavy_bus-25_single-01-converted-path17" d="M1733.012600,3080.089600L1657.510800,3034.722700L1623.437700,3034.722700C1623.437700,3034.722700,1611.829200,3077.929900,1613.146700,3080.089600C1628.327400,3104.966100,1699.014000,3123.892200,1743.123200,3125.457100C1750.446700,3125.716800,1760.665600,3125.755700,1763.305900,3120.447500C1767.777400,3111.459100,1747.799800,3092.602400,1733.012600,3080.089600Z" transform="matrix(1 0 0 1 -449.16751098632813 -455.00003051757813)" fill="url(#wavy_bus-25_single-01-converted-path17-fill)" stroke="none" stroke-width="1"/><path id="wavy_bus-25_single-01-converted-path18" d="M1656.175500,2985.218100C1656.050800,3011.650100,1657.180300,3030.298000,1663.797000,3038.499100C1668.454000,3044.273600,1623.682700,3057.264700,1623.437700,3034.722700C1623.275800,3019.884300,1620.944000,2994.435300,1618.572400,2986.961200Q1637.374150,2986.089100,1656.175500,2985.218100Z" transform="matrix(1 0 0 1 -449.16751098632813 -455.00003051757813)" fill="url(#wavy_bus-25_single-01-converted-path18-fill)" stroke="none" stroke-width="1"/></g><path id="wavy_bus-25_single-01-converted-path19" d="M1940.050900,2943.393200C1961.415700,2814.465500,1940.545700,2676.765800,1935.679000,2602.712400C1927.939400,2484.933600,1924.070600,2426.040600,1890.003300,2376.575100C1845.383500,2311.786000,1754.059900,2247.004300,1676.888500,2192.256800C1664.075295,2183.361951,1651.806329,2173.707666,1640.147500,2163.345800C1606.916009,2133.561593,1578.624334,2098.689869,1556.329100,2060.033000C1381.599100,2008.779700,1220.435500,2029.548600,1149.318700,2123.256300C1141.101400,2134.087500,1120.529000,2157.575100,1116.548500,2192.205300C1107.569400,2270.344600,1184.346700,2364.413800,1270.499900,2384.059700C1379.991700,2409.031900,1443.514900,2296.603200,1540.523700,2334.010100C1550.192800,2337.741500,1578.765000,2366.497400,1636.678300,2422.257400C1678.734400,2462.753400,1699.763400,2482.997600,1706.459500,2491.043800C1768.450600,2565.533600,1805.390900,2680.172100,1809.844500,2768.928800C1810.633800,2784.673100,1811.319300,2817.654900,1830.304900,2852.979500C1844.839900,2880.021200,1884.717800,2929.185700,1899.375500,2940.327100Q1919.712650,2941.857000,1940.050900,2943.393200Z" transform="matrix(1 0 0 1 -449.16751098632813 -455.00003051757813)" fill="url(#wavy_bus-25_single-01-converted-path19-fill)" stroke="none" stroke-width="1"/><path id="wavy_bus-25_single-01-converted-path20" d="M1613.042900,3007.049800C1613.042900,3007.049800,1650.422000,3024.700700,1678.163300,3007.049800C1677.247500,2960.310900,1677.177100,2887.157800,1683.155700,2797.691700C1696.240700,2601.892200,1723.945200,2542.681000,1699.355200,2459.066400C1681.608000,2398.725300,1633.930700,2316.513800,1493.238200,2239.653700L1135.953000,2204.609900C1135.953000,2204.609900,1119.110900,2232.035700,1123.210600,2269.990000C1130.718300,2339.485300,1210.600500,2382.094200,1277.401900,2416.923300C1409.315300,2485.709100,1437.170700,2454.064300,1480.133600,2500.426600C1538.208400,2563.094600,1502.043400,2636.802000,1533.772700,2791.789400C1552.938000,2885.407700,1586.625900,2958.619000,1613.042900,3007.049800Z" transform="matrix(1 0 0 1 -449.16751098632813 -455.00003051757813)" fill="url(#wavy_bus-25_single-01-converted-path20-fill)" stroke="none" stroke-width="1"/><g id="wavy_bus-25_single-01-converted-g11_tr" transform="translate(959.560547,1326.251953) rotate(0)"><g id="wavy_bus-25_single-01-converted-g11" transform="translate(-959.560547,-1326.251953)"><path id="wavy_bus-25_single-01-converted-path21" d="M1659.396200,2096.339700C1708.319500,2092.102900,1782.418600,1860.493500,1679.688900,1710.920500C1604.035300,1600.771400,1446.351200,1555.303900,1418.833900,1588.716200C1402.868700,1608.101100,1435.685600,1648.004700,1496.514200,1762.519100C1621.309700,1997.457800,1626.440900,2099.193700,1659.396200,2096.339700Z" transform="matrix(1 0 0 1 -449.16751098632813 -455.00003051757813)" fill="url(#wavy_bus-25_single-01-converted-path21-fill)" stroke="none" stroke-width="1"/><path id="wavy_bus-25_single-01-converted-path22" d="M1115.924500,1599.514100C1178.595388,1579.344162,1243.927998,1568.650363,1309.759000,1567.786800C1402.175700,1566.694500,1476.060700,1565.819900,1526.903400,1604.769700C1649.713400,1698.851500,1512.202100,1931.039300,1582.775000,2099.518100C1590.487500,2117.931900,1612.913700,2176.317100,1593.410300,2240.534000C1589.813000,2252.377500,1582.402800,2262.777100,1569.724400,2280.393700C1495.109800,2384.051200,1283.880100,2399.642500,1186.302200,2314.433500C1134.521800,2269.217200,1087.841300,2279.253300,1086.590900,2225.732100C1081.657600,2014.435000,1117.947400,1802.865700,1115.924500,1599.514100Z" transform="matrix(1 0 0 1 -449.16751098632813 -455.00003051757813)" fill="url(#wavy_bus-25_single-01-converted-path22-fill)" stroke="none" stroke-width="1"/><path id="wavy_bus-25_single-01-converted-path23" style="mix-blend-mode:multiply" d="M1208.979000,1867.274100C1191.211900,1823.547700,1209.621900,1772.765500,1169.985600,1751.416800C1155.440200,1743.582000,1119.795700,1721.554700,1117.616100,1741.176700C1103.189400,1871.068300,1090.257600,2005.098200,1094.433600,2166.981300C1095.812600,2220.439700,1136.308300,2269.161600,1193.548500,2314.201300C1259.649900,2366.211200,1373.008700,2380.023000,1469.682100,2359.121000C1342.967900,2292.254000,1252.021200,2221.277400,1265.074600,2157.608700C1280.264200,2083.517900,1428.248300,2058.016700,1422.316500,2005.992600C1416.026500,1950.838200,1247.757600,1962.719000,1208.979000,1867.274100Z" transform="matrix(1 0 0 1 -449.16751098632813 -455.00003051757813)" opacity="0.3" fill="url(#wavy_bus-25_single-01-converted-path23-fill)" stroke="none" stroke-width="1"/><g id="wavy_bus-25_single-01-converted-g12"><path id="wavy_bus-25_single-01-converted-path24" d="M1283.043720,1441.858470C1291.498110,1481.357730,1291.838720,1512.651610,1290.503430,1534.078640C1288.973230,1558.634640,1285.569010,1564.966890,1280.624060,1570.098500C1273.179610,1577.826420,1258.076830,1585.710750,1238.375530,1585.837950C1198.668740,1586.094420,1224.883340,1615.095890,1248.017370,1631.803160C1271.734780,1648.931700,1328.759320,1656.452410,1378.905420,1652.053160C1413.390930,1649.027790,1456.570970,1609.881160,1448.509340,1594.418850C1444.017340,1585.803160,1424.620930,1601.703680,1397.291010,1572.711540C1378.268660,1552.530710,1389.234320,1524.039030,1404.237010,1500.484890C1379.713500,1473.985600,1307.633810,1468.409620,1283.043720,1441.858470Z" transform="matrix(1 0 0 1 -449.16751098632813 -455.00003051757813)" fill="url(#wavy_bus-25_single-01-converted-path24-fill)" stroke="none" stroke-width="1"/><g id="wavy_bus-25_single-01-converted-g13"><path id="wavy_bus-25_single-01-converted-path25" d="M1461.311240,1344.576320C1499.042890,1317.150050,1489.488530,1294.014440,1463.291920,1252C1450.658400,1231.738210,1422.641600,1198.447790,1396,1202C1321,1212,1255.046770,1165.134180,1203.264130,1221C1172.553960,1254.137260,1169.400040,1311.041440,1172.076690,1326.613900C1175.110080,1344.229900,1187.344690,1352.787630,1196.653220,1367.677570C1209.545730,1388.325990,1185.459520,1480.062320,1217.877220,1534.500000C1225.146610,1522.210630,1424.556500,1620.077500,1428.108120,1505.065910C1428.353590,1497.116740,1318.688170,1403.127340,1344.773510,1385.725400C1396.999000,1350.873530,1425.518410,1370.594340,1461.311240,1344.576320Z" transform="matrix(1 0 0 1 -449.16751098632813 -455.00003051757813)" fill="rgb(63,21,21)" stroke="none" stroke-width="1"/><path id="wavy_bus-25_single-01-converted-path26" d="M1208.303280,1423.767530C1208.303280,1423.767530,1237.022210,1509.412980,1338.426440,1525.823120C1429.037980,1540.482300,1494.024680,1362.508230,1448.240620,1311.313060C1432.951720,1294.226520,1396.478030,1280.317490,1363.303290,1281.173470C1343.695500,1281.680110,1335.526230,1287.154470,1303.458880,1287.417100C1273.853170,1287.666710,1266.823400,1283.117540,1256.612620,1287.599330C1243.839620,1293.211110,1230.532620,1311.033210,1232.773110,1367.962720C1220.212470,1348.513000,1201.462840,1337.909870,1185.164950,1340.839110C1179.593552,1342.108693,1174.445926,1344.799555,1170.223440,1348.649610C1151.741230,1366.554470,1165.056270,1397.720600,1208.303280,1423.767530Z" transform="matrix(1 0 0 1 -449.16751098632813 -455.00003051757813)" fill="url(#wavy_bus-25_single-01-converted-path26-fill)" stroke="none" stroke-width="1"/><path id="wavy_bus-25_single-01-converted-path27" d="M1233.930710,1377.376460C1241.025890,1425.086330,1253.540380,1418.602460,1297.951480,1432.900630C1324.190320,1441.346420,1335.817380,1428.316720,1381.513190,1434.049990C1403.561425,1436.835148,1425.073302,1442.881692,1445.343820,1451.991460C1446.726940,1498.863730,1421.067870,1539.549150,1382.974400,1552.580460C1341.927220,1566.621320,1301.271560,1543.461980,1284.262590,1533.767620C1272.883430,1527.284470,1236.373100,1506.575840,1225.044760,1468.785170C1213.238530,1429.395000,1240.560700,1413.381430,1222.342170,1384.443170" transform="matrix(1 0 0 1 -449.16751098632813 -455.00003051757813)" fill="rgb(33,7,7)" stroke="none" stroke-width="1"/><path id="wavy_bus-25_single-01-converted-path28" d="M1402.315230,1467.540760C1402.315230,1467.540760,1380.457060,1472.330760,1347.681040,1463.177760C1346.085860,1462.728150,1344.175380,1462.757590,1343.754450,1463.472990C1342.167560,1466.161900,1359.826360,1483.764370,1380.924780,1483.166220C1395.900250,1482.736220,1410.194870,1473.203950,1409.194170,1469.737570C1408.763360,1468.278440,1405.561000,1467.734130,1402.315230,1467.540760Z" transform="matrix(1 0 0 1 -449.16751098632813 -455.00003051757813)" fill="url(#wavy_bus-25_single-01-converted-path28-fill)" stroke="none" stroke-width="1"/></g></g></g></g></g></g></g><g id="wavy_bus-25_single-01-converted-table"><g id="wavy_bus-25_single-01-converted-g14"><g id="wavy_bus-25_single-01-converted-g15"><path id="wavy_bus-25_single-01-converted-path29" d="M2083.977500,2943.068000C2083.875200,2943.068000,2083.774500,2943.064600,2083.670500,2943.056200C2081.615518,2942.897683,2080.029060,2941.183687,2080.029600,2939.122600L2080.029600,2084.612400C2080.029600,2083.203148,2080.781427,2081.900945,2082.001875,2081.196319C2083.222323,2080.491693,2084.725977,2080.491693,2085.946425,2081.196319C2087.166873,2081.900945,2087.918700,2083.203148,2087.918700,2084.612400L2087.918700,2887.879400L2209.575800,2102.509700C2209.909408,2100.356176,2211.925626,2098.880842,2214.079150,2099.214450C2216.232674,2099.548058,2217.708008,2101.564276,2217.374400,2103.717800L2087.873400,2939.726600C2087.575138,2941.648006,2085.921917,2943.065926,2083.977500,2943.068000Z" transform="matrix(1 0 0 1 -449.16751098632813 -455.00003051757813)" fill="rgb(183,192,206)" stroke="none" stroke-width="1"/><g id="wavy_bus-25_single-01-converted-g16"><polygon id="wavy_bus-25_single-01-converted-polygon29" points="190.764000,1737.208000 1611.453000,1627.808000 2740.434000,1715.001000 1310.954000,1835.307000 190.764000,1737.208000" opacity="0.81" fill="rgb(244,247,250)" stroke="none" stroke-width="1"/><polygon id="wavy_bus-25_single-01-converted-polygon30" points="1310.954000,1835.309000 190.764000,1737.206000 190.764000,1784.591000 1310.954000,1882.692000 2740.434000,1762.384000 2740.434000,1715 1310.954000,1835.309000" fill="rgb(183,192,206)" stroke="none" stroke-width="1"/></g><path id="wavy_bus-25_single-01-converted-path30" d="M1750.455200,3234.647300C1748.482201,3234.645411,1746.813911,3233.186362,1746.549200,3231.231200L1623.398800,2322.032500C1623.204391,2320.633270,1623.772997,2319.236890,1624.889564,2318.371490C1626.006132,2317.506090,1627.500207,2317.303780,1628.806711,2317.841077C1630.113214,2318.378374,1631.032698,2319.573256,1631.217400,2320.973800L1746.514000,3172.180300L1746.514000,2321.503100C1746.514000,2319.324585,1748.280035,2317.558550,1750.458550,2317.558550C1752.637065,2317.558550,1754.403100,2319.324585,1754.403100,2321.503100L1754.403100,3230.701900C1754.403845,3232.777929,1752.794968,3234.499050,1750.723600,3234.638100C1750.634700,3234.644800,1750.544100,3234.647300,1750.455200,3234.647300Z" transform="matrix(1 0 0 1 -449.16751098632813 -455.00003051757813)" fill="rgb(183,192,206)" stroke="none" stroke-width="1"/><path id="wavy_bus-25_single-01-converted-path31" d="M3173.982400,3067.521200C3172.011168,3067.519513,3170.343617,3066.063251,3170.076500,3064.110200L3055.936000,2228.838800C3055.643734,2226.681250,3057.154355,2224.694735,3059.311549,2224.399847C3061.468742,2224.104960,3063.457091,2225.613166,3063.754600,2227.770000L3170.039600,3005.563400L3170.039600,2195.237000C3170.039600,2193.057574,3171.806374,2191.290800,3173.985800,2191.290800C3176.165226,2191.290800,3177.932000,2193.057574,3177.932000,2195.237000L3177.932000,3063.575800C3177.931482,3065.650658,3176.324345,3067.370758,3174.254300,3067.512000C3174.162000,3067.517800,3174.071400,3067.521200,3173.982400,3067.521200Z" transform="matrix(1 0 0 1 -449.16751098632813 -455.00003051757813)" fill="rgb(183,192,206)" stroke="none" stroke-width="1"/><path id="wavy_bus-25_single-01-converted-path32" d="M653.386580,3067.521200C653.290880,3067.521200,653.193580,3067.517800,653.094580,3067.510300C651.033032,3067.359268,649.437442,3065.642873,649.437000,3063.575800L649.437000,2239.591100C649.437000,2237.411652,651.203792,2235.644860,653.383240,2235.644860C655.562688,2235.644860,657.329480,2237.411652,657.329480,2239.591100L657.329480,3009.638000L770.673000,2239.017300C770.876588,2237.621767,771.809742,2236.441099,773.120493,2235.920624C774.431243,2235.400150,775.920145,2235.619064,777.025611,2236.494796C778.131076,2237.370528,778.684896,2238.769827,778.478180,2240.164900L657.285780,3064.149600C657.001804,3066.084799,655.342503,3067.519580,653.386580,3067.521200Z" transform="matrix(1 0 0 1 -449.16751098632813 -455.00003051757813)" fill="rgb(183,192,206)" stroke="none" stroke-width="1"/></g><polygon id="wavy_bus-25_single-01-converted-polygon31" points="1017.133000,1699.205000 1017.133000,1685.436000 1609.765000,1653.505000 1609.765000,1667.136000 1190.980000,1708.348000 1017.133000,1699.205000" fill="url(#wavy_bus-25_single-01-converted-polygon31-fill)" stroke="none" stroke-width="1"/><polygon id="wavy_bus-25_single-01-converted-polygon32" points="903.632000,1708.120000 1065.945000,1710.185000 1426.897000,1679.926000 1325.971000,1673.738000 903.632000,1708.120000" fill="url(#wavy_bus-25_single-01-converted-polygon32-fill)" stroke="none" stroke-width="1"/><g id="wavy_bus-25_single-01-converted-g17"><path id="wavy_bus-25_single-01-converted-path33" d="M1512.848800,2103.895800L1660.011300,1643.447000C1662.332500,1636.182500,1670.611600,1630.926600,1679.986500,1630.754400L2324.343700,1618.926800C2329.835800,1618.826100,2339.366000,1622.838200,2342.707700,1626.304600C2346.047300,1629.767900,2350.601600,1630.403300,2349.350200,1634.886100L2229.209700,2040.073600C2227.207500,2046.825700,2220.032700,2052.044900,2211.693100,2052.809200L1524.658200,2115.774700Z" transform="matrix(1 0 0 1 -449.16751098632813 -455.00003051757813)" fill="url(#wavy_bus-25_single-01-converted-path33-fill)" stroke="none" stroke-width="1"/><path id="wavy_bus-25_single-01-converted-path34" d="M1524.658200,2115.774700L1673.893800,1652.203700C1676.224200,1644.961700,1684.477300,1639.720800,1693.818500,1639.543100L2336.816000,1627.309300C2341.991631,1627.086700,2347.030422,1629.005843,2350.746600,1632.615100C2354.033441,1635.892612,2355.292490,1640.690493,2354.038500,1645.159600L2241.696800,2047.592000C2239.762600,2054.519300,2232.385100,2059.882900,2223.852700,2060.556400Z" transform="matrix(1 0 0 1 -449.16751098632813 -455.00003051757813)" fill="url(#wavy_bus-25_single-01-converted-path34-fill)" stroke="none" stroke-width="1"/><path id="wavy_bus-25_single-01-converted-path35" style="mix-blend-mode:multiply" d="M1524.658200,2115.774700L2223.852700,2060.556400C2232.385100,2059.882900,2239.762600,2054.519700,2241.696800,2047.592000L2275.611500,1926.101800C2062.519400,2000.602900,1809.326300,1992.428200,1558.284700,2011.322100Z" transform="matrix(1 0 0 1 -449.16751098632813 -455.00003051757813)" opacity="0.3" fill="url(#wavy_bus-25_single-01-converted-path35-fill)" stroke="none" stroke-width="1"/><path id="wavy_bus-25_single-01-converted-path36" d="M1935.597600,2193.328900L1909.077500,2202.483200C1909.077500,2202.483200,1769.641900,2176.299500,1763.570500,2172.025300C1762.605300,2171.344900,1759.260200,2164.860500,1765.495500,2163.788100C1798.404400,2158.130800,1918.539400,2153.964400,1918.539400,2153.964400L1929.541300,2154.578800Z" transform="matrix(1 0 0 1 -449.16751098632813 -455.00003051757813)" fill="url(#wavy_bus-25_single-01-converted-path36-fill)" stroke="none" stroke-width="1"/><path id="wavy_bus-25_single-01-converted-path37" d="M1937.500900,2185.184100L1910.984300,2194.323300C1910.984300,2194.323300,1771.565100,2168.067500,1765.495500,2163.788100C1759.418600,2159.505200,1920.442000,2145.821000,1920.442000,2145.821000L1931.434700,2146.474500Z" transform="matrix(1 0 0 1 -449.16751098632813 -455.00003051757813)" fill="url(#wavy_bus-25_single-01-converted-path37-fill)" stroke="none" stroke-width="1"/><path id="wavy_bus-25_single-01-converted-path38" d="M2052.788400,1864.931300C2052.788400,1864.931300,2120.459500,2156.037400,2122.459000,2173.077800C2124.303900,2188.796200,1957.960200,2204.214400,1918.118500,2205.576500C1914.795300,2205.690200,1910.413200,2203.398600,1909.077500,2202.483200C1898.051200,2201.213200,1949.644700,1869.121700,1949.644700,1869.121700L1953.442700,1869.266100Z" transform="matrix(1 0 0 1 -449.16751098632813 -455.00003051757813)" fill="url(#wavy_bus-25_single-01-converted-path38-fill)" stroke="none" stroke-width="1"/><path id="wavy_bus-25_single-01-converted-path39" d="M2052.788400,1864.931300C2052.788400,1864.931300,2129.736200,2158.985000,2131.730500,2176.011200C2133.722100,2193.020700,1935.962200,2206.020100,1918.663400,2205.440700C1907.653600,2204.174500,1953.442700,1869.266100,1953.442700,1869.266100Z" transform="matrix(1 0 0 1 -449.16751098632813 -455.00003051757813)" fill="url(#wavy_bus-25_single-01-converted-path39-fill)" stroke="none" stroke-width="1"/></g></g></g><g id="wavy_bus-25_single-01-converted-right-arm_tr" transform="translate(688.097656,1429.351563) rotate(0)"><g id="wavy_bus-25_single-01-converted-right-arm" transform="translate(-688.097656,-1429.351563)"><path id="wavy_bus-25_single-01-converted-path40" d="M1247.544900,2155.114800Q1262.474250,2138.436150,1277.401900,2121.749200C1199.869300,2020.010800,1138.326000,1975.924300,1094.751100,1954.904200C1064.904100,1940.505900,1066.124700,1931.205600,1064.896200,1927.685200C1057.508500,1906.521400,1138.774800,1813.610300,1160.002800,1785.426800C1199.071800,1733.558300,1236.053000,1645.055100,1207.288700,1609.524000C1177.344100,1572.536000,1081.943100,1600.112700,1031.385300,1624.655600C997.379877,1641.231558,966.939148,1664.289360,941.772500,1692.534200C894.203100,1746.065300,802.660180,1890.152200,861.156700,2019.964400C915.497800,2140.555700,1082.094300,2210.607400,1247.544900,2155.114800Z" transform="matrix(1 0 0 1 -449.16751098632813 -455.00003051757813)" fill="url(#wavy_bus-25_single-01-converted-path40-fill)" stroke="none" stroke-width="1"/><path id="wavy_bus-25_single-01-converted-path41" d="M1277.401900,2140.436500C1277.401900,2140.436500,1327.119200,2117.685200,1355.826400,2119.716000C1384.531900,2121.748800,1424.927600,2147.870000,1431.950500,2163.347900C1438.976800,2178.826200,1334.820400,2177.134200,1334.820400,2177.134200C1334.820400,2177.134200,1210.664100,2172.297400,1277.401900,2140.436500Z" transform="matrix(1 0 0 1 -449.16751098632813 -455.00003051757813)" fill="url(#wavy_bus-25_single-01-converted-path41-fill)" stroke="none" stroke-width="1"/><path id="wavy_bus-25_single-01-converted-path42" d="M1251.632600,2113.843200C1279.377700,2078.571600,1345.530600,2100.120900,1349.268800,2101.392200C1365.082100,2106.762600,1386.272300,2117.671100,1384.796200,2124.627000C1383.364600,2131.363600,1362.047300,2127.854200,1326.880800,2133.797100C1275.415400,2142.492000,1252.592600,2161.576200,1243.489200,2151.865900C1236.524400,2144.436600,1242.522900,2125.424200,1251.632600,2113.843200Z" transform="matrix(1 0 0 1 -449.16751098632813 -455.00003051757813)" fill="url(#wavy_bus-25_single-01-converted-path42-fill)" stroke="none" stroke-width="1"/></g></g><g id="wavy_bus-25_single-01-converted-cog-1" display="none"><g id="wavy_bus-25_single-01-converted-cog1"><path id="wavy_bus-25_single-01-converted-path43" d="M2009.190900,996.049400C2037.534900,998.436200,2062.608400,975.491400,2065.192700,944.800600C2067.777700,914.109700,2046.895700,887.294400,2018.551700,884.907300C2017.082800,884.783900,2015.629300,884.768800,2014.180900,884.777800C2012.859217,869.128338,2010.392444,853.596776,2006.800400,838.307900C2008.146000,837.756800,2009.488500,837.185700,2010.812100,836.505300C2036.651500,823.226900,2047.924200,789.949500,2035.990300,762.176200C2024.056800,734.402300,1993.436400,722.652300,1967.596700,735.929300C1966.245900,736.624500,1964.959700,737.404100,1963.690100,738.203400C1955.311767,725.539144,1945.968168,713.540656,1935.742600,702.314900C1936.682400,701.092300,1937.607100,699.848400,1938.464700,698.521700C1954.875200,673.137300,1949.327200,638.441200,1926.073900,621.028300C1902.819600,603.615500,1870.664100,610.078600,1854.253300,635.463400C1853.412500,636.765000,1852.667900,638.102700,1851.942100,639.449700C1838.731934,633.079537,1825.009153,627.832292,1810.919000,623.763500C1811.171500,622.217600,1811.401100,620.661400,1811.535100,619.071800C1814.120100,588.380200,1819.713900,553.730500,1791.335200,551.787600C1725.687700,547.292400,1711.476700,579.735400,1708.891600,610.426700C1708.757600,612.015900,1708.724300,613.588700,1708.714700,615.155200C1694.142424,616.810520,1679.735182,619.688497,1665.645300,623.758700C1665.154900,622.310000,1664.644700,620.866200,1664.033000,619.442500C1652.099900,591.670300,1654.254000,573.143100,1627.130900,583.549300C1567.983300,606.242100,1558.527600,639.754500,1570.460800,667.527000C1571.084400,668.978100,1571.788100,670.359500,1572.510400,671.721600C1560.550791,681.078790,1549.331853,691.345831,1538.953700,702.431100C1537.835300,701.430400,1536.697900,700.446300,1535.482200,699.535400C1512.228500,682.122600,1480.072800,688.585700,1463.662300,713.972500C1447.251800,739.358300,1452.799500,774.052300,1476.053500,791.464800C1477.244800,792.357900,1478.472900,793.145800,1479.707200,793.913400C1473.608653,808.386548,1468.578591,823.287026,1464.657400,838.495200C1463.231400,838.243600,1461.795400,838.014800,1460.327500,837.891100C1431.983500,835.504000,1406.909700,858.448300,1404.324600,889.140000C1401.739900,919.830600,1422.622300,946.646100,1450.966300,949.033300C1452.434600,949.157000,1453.888400,949.172100,1455.336400,949.162800C1456.658840,964.812189,1459.125875,980.343682,1462.717700,995.632600C1461.371700,996.183500,1460.029600,996.754500,1458.705900,997.433900C1432.866900,1010.713300,1421.594200,1043.991000,1433.527300,1071.764200C1445.461200,1099.537800,1476.082000,1111.286800,1501.921000,1098.008700C1503.271100,1097.315300,1504.558600,1096.536000,1505.828000,1095.736100C1514.205738,1108.400992,1523.549228,1120.399847,1533.775100,1131.625600C1532.834900,1132.848500,1531.911000,1134.091600,1531.052900,1135.418800C1514.642400,1160.803500,1520.190200,1195.498600,1543.444500,1212.911800C1566.698800,1230.325000,1617.038100,1222.357800,1633.448300,1196.973400C1634.289500,1195.671800,1616.850500,1195.837400,1617.576200,1194.490400C1630.786277,1200.860931,1644.509114,1206.108286,1658.599400,1210.176900C1658.347200,1211.722500,1658.116600,1213.279100,1657.982900,1214.868300C1655.397900,1245.559200,1676.279900,1272.374500,1704.624300,1274.762600C1732.968600,1277.149400,1758.041700,1254.204300,1760.626700,1223.513800C1760.760400,1221.923800,1760.793700,1220.350800,1760.803400,1218.784200C1775.375544,1217.129861,1789.782616,1214.252106,1803.872100,1210.181400C1804.362800,1211.630100,1804.873700,1213.074300,1805.484700,1214.497900C1817.418200,1242.269800,1848.039300,1254.020500,1873.878300,1240.742400C1899.717700,1227.464300,1910.990800,1194.185300,1899.056900,1166.413800C1898.433300,1164.962200,1897.729900,1163.581300,1897.007900,1162.218500C1908.967424,1152.861246,1920.186355,1142.594246,1930.564600,1131.509100C1931.682100,1132.510000,1932.821200,1133.494100,1934.035900,1134.403700C1957.290200,1151.816200,1989.444900,1145.354800,2005.856100,1119.968000C2022.266900,1094.581800,2016.718500,1059.888100,1993.464600,1042.473200C1992.273600,1041.582600,1991.045500,1040.794700,1989.811200,1040.026700C1995.909609,1025.553875,2000.939342,1010.653649,2004.860000,995.445700C2006.286700,995.696500,2007.721900,995.925700,2009.190900,996.049400ZM1717.765200,1118.735300C1614.853800,1110.068000,1539.035500,1012.708600,1548.421100,901.275900C1557.806000,789.843300,1648.840700,706.536600,1751.752100,715.204400C1854.664600,723.872500,1930.482500,821.231800,1921.096600,932.664700C1911.711700,1044.097200,1820.677400,1127.403500,1717.765200,1118.735300Z" transform="matrix(1 0 0 1 -449.16751098632813 -455.00003051757813)" fill="rgb(191,198,209)" stroke="none" stroke-width="1"/><path id="wavy_bus-25_single-01-converted-path44" d="M2010.812100,836.505300C2036.651100,823.226200,2047.923900,789.948800,2035.991000,762.175500C2024.056800,734.402300,1993.436000,722.651600,1967.597000,735.930000C1966.245900,736.624100,1964.959700,737.404800,1963.690100,738.203400C1955.312013,725.538967,1945.968400,713.540461,1935.742600,702.314900C1936.683100,701.092700,1937.607100,699.848100,1938.464400,698.520700C1954.874900,673.136600,1967.483300,622.782900,1942.565800,607.847200C1895.273400,579.501100,1870.663800,610.079300,1854.253300,635.463400C1853.412500,636.765000,1852.667900,638.102400,1851.941400,639.448300C1838.730983,633.078693,1825.008085,627.831822,1810.917900,623.763200C1811.171200,622.216900,1811.401100,620.661400,1811.535100,619.071800C1812.987901,603.310648,1807.893264,587.645867,1797.447100,575.754600Q1787.969950,647.741250,1779.699600,719.866900C1868.021400,742.100000,1929.609000,831.589200,1921.096600,932.664700C1913.883000,1018.316500,1858.410400,1087.294700,1786.404300,1110.718700C1786.570200,1120.081700,1786.811400,1129.466300,1786.724200,1138.840800C1786.489500,1164.281300,1784.839400,1189.775600,1783.163900,1215.246700Q1793.643050,1213.129150,1803.872400,1210.180400C1804.362800,1211.630100,1804.873700,1213.074300,1805.485000,1214.497200C1817.418500,1242.270100,1844.080800,1259.155900,1891.622800,1236.845100C1917.922200,1224.503400,1910.990800,1194.186000,1899.056600,1166.413100C1898.433300,1164.962200,1897.729900,1163.580600,1897.007900,1162.218500C1908.966790,1152.860863,1920.185452,1142.593995,1930.563900,1131.509400C1931.682100,1132.510000,1932.821200,1133.494100,1934.035900,1134.403700C1957.290200,1151.816900,2009.458200,1142.040600,2025.868700,1116.654500C2042.279900,1091.268300,2016.718500,1059.888100,1993.464600,1042.473900C1992.273600,1041.581900,1991.045100,1040.794000,1989.810900,1040.025600C1995.909317,1025.553124,2000.939148,1010.653270,2004.860000,995.445700C2006.287000,995.697200,2007.722300,995.926300,2009.190600,996.048800C2037.534900,998.437200,2062.608000,975.490800,2065.193100,944.799900C2067.777700,914.109700,2046.895700,887.293000,2018.551400,884.906600C2017.082800,884.783200,2015.629300,884.768100,2014.180900,884.777800C2012.859107,869.128583,2010.392335,853.597261,2006.800400,838.308600C2008.146000,837.756800,2009.488500,837.185000,2010.812100,836.505300Z" transform="matrix(1 0 0 1 -449.16751098632813 -455.00003051757813)" fill="rgb(191,198,209)" stroke="none" stroke-width="1"/><path id="wavy_bus-25_single-01-converted-path45" d="M2035.632300,988.658200C2063.976300,991.046400,2089.049400,968.101300,2091.634400,937.410400C2094.219500,906.718800,2073.336800,879.903500,2044.992400,877.516800C2043.524500,877.392700,2042.071000,877.377900,2040.622700,877.387600C2039.300663,861.737944,2036.833861,846.206172,2033.242100,830.917000C2034.587400,830.365900,2035.930200,829.794800,2037.253100,829.114100C2063.092900,815.836300,2074.365600,782.558900,2062.432100,754.785300C2050.498600,727.012100,2019.877800,715.261100,1994.038400,728.539500C1992.687600,729.234600,1991.401500,730.013900,1990.131800,730.813500C1981.753253,718.148910,1972.409563,706.149998,1962.184000,694.923700C1963.124100,693.702100,1964.048800,692.457500,1964.906500,691.130500C1981.316600,665.746100,1975.768900,631.050600,1952.514600,613.638200C1929.260900,596.224600,1897.105200,602.688400,1880.694700,628.072900C1879.854200,629.374500,1879.109900,630.712900,1878.383500,632.058800C1865.173237,625.688755,1851.450311,620.441772,1837.360000,616.373400C1837.611900,614.827100,1837.842800,613.270800,1837.976800,611.680900C1840.561900,580.990000,1819.679200,554.174800,1791.335200,551.787600C1762.990800,549.400500,1737.918100,572.344600,1735.332700,603.035800C1735.199400,604.625700,1735.166000,606.198500,1735.155400,607.765000C1720.583342,609.419613,1706.176372,612.297601,1692.087000,616.368500C1691.596000,614.919200,1691.086100,613.475300,1690.474800,612.052000C1678.541300,584.279800,1647.920400,572.528800,1622.080700,585.807200C1596.242000,599.084900,1584.969000,632.364300,1596.902100,660.136200C1597.525800,661.588000,1598.228800,662.968600,1598.951800,664.330700C1586.992692,673.688482,1575.773798,683.955482,1565.395100,695.040200C1564.277000,694.039900,1563.138900,693.056500,1561.923200,692.144500C1538.669200,674.731700,1506.514200,681.195500,1490.103700,706.581600C1473.692500,731.968100,1479.240900,766.661500,1502.494900,784.075000C1503.686200,784.967000,1504.914300,785.754900,1506.148900,786.523300C1500.050313,800.996190,1495.020152,815.896397,1491.098800,831.104300C1489.673100,830.852800,1488.237100,830.624600,1486.768900,830.500900C1458.424500,828.113100,1433.351400,851.058200,1430.766400,881.748800C1428.182000,912.440000,1449.063700,939.255300,1477.408000,941.642700C1478.876300,941.766800,1480.329800,941.781500,1481.778200,941.771900C1483.100637,957.421369,1485.567401,972.952976,1489.158700,988.242100C1487.813500,988.792600,1486.471300,989.364700,1485.147700,990.043600C1459.308000,1003.323100,1448.035600,1036.599800,1459.968700,1064.374100C1471.902600,1092.147300,1502.523700,1103.896600,1528.362400,1090.618600C1529.712800,1089.924800,1531,1089.145100,1532.269700,1088.345500C1540.647631,1101.010379,1549.991110,1113.009353,1560.216800,1124.235400C1559.276300,1125.457300,1558.352300,1126.701900,1557.494300,1128.028600C1541.084200,1153.413000,1546.631500,1188.108300,1569.886200,1205.521200C1593.140600,1222.934000,1625.295300,1216.471000,1641.705800,1191.086200C1642.547000,1189.784600,1643.291200,1188.446500,1644.018000,1187.100200C1657.228113,1193.470138,1670.950787,1198.717248,1685.040800,1202.786000C1684.788900,1204.332300,1684.558300,1205.888200,1684.424000,1207.478500C1681.839300,1238.169100,1702.721600,1264.984600,1731.066000,1267.371800C1759.410000,1269.758500,1784.483400,1246.814100,1787.067800,1216.122900C1787.202100,1214.533300,1787.235500,1212.960600,1787.245100,1211.394000C1801.817299,1209.739861,1816.224396,1206.862001,1830.313800,1202.790900C1830.804500,1204.239900,1831.315400,1205.683800,1831.926100,1207.107000C1843.860200,1234.879300,1874.481100,1246.629600,1900.319700,1233.351500C1926.159500,1220.074100,1937.432500,1186.795100,1925.498700,1159.023600C1924.875000,1157.571000,1924.171600,1156.190800,1923.449300,1154.827700C1935.408477,1145.470473,1946.627288,1135.203792,1957.005700,1124.119200C1958.123800,1125.119500,1959.261900,1126.102900,1960.477200,1127.012500C1983.731600,1144.426000,2015.886600,1137.963900,2032.297100,1112.577700C2048.708300,1087.191200,2043.160300,1052.497300,2019.905900,1035.083000C2018.715000,1034.192400,2017.487200,1033.404500,2016.252300,1032.635800C2022.350596,1018.163111,2027.380522,1003.263140,2031.301700,988.055500C2032.728400,988.306700,2034.163300,988.534900,2035.632300,988.658200ZM1744.206600,1111.345200C1641.295500,1102.677800,1565.477300,1005.318200,1574.862800,893.885300C1584.247700,782.452800,1675.282400,699.146400,1778.194200,707.813800C1881.105300,716.481600,1956.923900,813.840900,1947.538000,925.273800C1938.153100,1036.706300,1847.119100,1120.012600,1744.206600,1111.345200Z" transform="matrix(1 0 0 1 -449.16751098632813 -455.00003051757813)" fill="rgb(255,255,255)" stroke="none" stroke-width="1"/></g></g><g id="wavy_bus-25_single-01-converted-cog-2" display="none"><g id="wavy_bus-25_single-01-converted-cog2"><path id="wavy_bus-25_single-01-converted-path46" d="M2786.630300,1314.932600C2821.295500,1317.852000,2851.960300,1289.790100,2855.121200,1252.254600C2858.282800,1214.719500,2832.744100,1181.924000,2798.078600,1179.004600C2796.282500,1178.853800,2794.504600,1178.835500,2792.733300,1178.846500C2791.116610,1159.707030,2788.099700,1140.711741,2783.706800,1122.013200C2785.352400,1121.339400,2786.994500,1120.641100,2788.613000,1119.808500C2820.214800,1103.569200,2834.001400,1062.871100,2819.406300,1028.903800C2804.811800,994.936100,2767.362600,980.565300,2735.760400,996.803700C2734.108600,997.653800,2732.535200,998.607300,2730.982400,999.584900C2720.735613,984.096393,2709.308430,969.422029,2696.802700,955.692600C2697.952100,954.197800,2699.082700,952.676300,2700.131700,951.053700C2720.201700,920.008200,2713.416700,877.574800,2684.977100,856.278800C2656.537300,834.982600,2617.210900,842.887000,2597.140500,873.932800C2596.112100,875.524800,2595.201500,877.161100,2594.313600,878.808100C2578.157324,871.017573,2561.374273,864.600075,2544.142000,859.623500C2544.450500,857.733300,2544.731900,855.829700,2544.895900,853.885800C2548.057100,816.349600,2554.898200,773.973000,2520.190800,771.596800C2439.903400,766.099000,2422.523200,805.777200,2419.361600,843.312700C2419.197700,845.256600,2419.157200,847.180100,2419.145100,849.095800C2401.323048,851.120039,2383.702859,854.639882,2366.470900,859.618100C2365.871300,857.846400,2365.247300,856.080200,2364.499300,854.339100C2349.904800,820.373800,2352.539600,797.714900,2319.367500,810.441500C2247.029400,838.195200,2235.465300,879.180900,2250.059400,913.146800C2250.821900,914.921600,2251.682700,916.611200,2252.566500,918.277100C2237.939742,929.720956,2224.218797,942.277538,2211.526100,955.834800C2210.158500,954.610900,2208.767600,953.407500,2207.280400,952.293500C2178.840900,930.997800,2139.514100,938.902000,2119.444100,969.950300C2099.373700,1000.997500,2106.158800,1043.428500,2134.598700,1064.723900C2136.055600,1065.815900,2137.557600,1066.779700,2139.067400,1067.718400C2131.608870,1085.419108,2125.457008,1103.642405,2120.661200,1122.242000C2118.917300,1121.934800,2117.161100,1121.655100,2115.365400,1121.503600C2080.700500,1118.583900,2050.035400,1146.645100,2046.874100,1184.181200C2043.712800,1221.716300,2069.251900,1254.511900,2103.916700,1257.431200C2105.712500,1257.582800,2107.490700,1257.601000,2109.261700,1257.589600C2110.878861,1276.729111,2113.896104,1295.724422,2118.289200,1314.423000C2116.642900,1315.096500,2115.001500,1315.795100,2113.382400,1316.625600C2081.781200,1332.866700,2067.994600,1373.565500,2082.588700,1407.532300C2097.183900,1441.500100,2134.633700,1455.868800,2166.234900,1439.629700C2167.886300,1438.781400,2169.460800,1437.828200,2171.012900,1436.849800C2181.259057,1452.339138,2192.686275,1467.013947,2205.192600,1480.743300C2204.042800,1482.239000,2202.913000,1483.759600,2201.863200,1485.382400C2181.793200,1516.428300,2188.578300,1558.860700,2217.018500,1580.157400C2245.458700,1601.453000,2307.024000,1591.709800,2327.093700,1560.664700C2328.122500,1559.072300,2306.794800,1559.274700,2307.682100,1557.627800C2323.838304,1565.418678,2340.621491,1571.836122,2357.854000,1576.812200C2357.545500,1578.702900,2357.263700,1580.606500,2357.100100,1582.550000C2353.938200,1620.085400,2379.477200,1652.880700,2414.142800,1655.801100C2448.807600,1658.720400,2479.472400,1630.658200,2482.634400,1593.123100C2482.797900,1591.178900,2482.838500,1589.255000,2482.850200,1587.339400C2500.672108,1585.315863,2518.292114,1581.796110,2535.523700,1576.817400C2536.123600,1578.589800,2536.748700,1580.355700,2537.495700,1582.097100C2552.090900,1616.062000,2589.540400,1630.433100,2621.141900,1614.194100C2652.744100,1597.955000,2666.530700,1557.254200,2651.935500,1523.289700C2651.173100,1521.514200,2650.312600,1519.825300,2649.429500,1518.158800C2664.056065,1506.714827,2677.776871,1494.158216,2690.469500,1480.601000C2691.836400,1481.825000,2693.229500,1483.028300,2694.714900,1484.140600C2723.155100,1505.436700,2762.481200,1497.534500,2782.551500,1466.485900C2802.622300,1435.438300,2795.836800,1393.007600,2767.396600,1371.709200C2765.940400,1370.620000,2764.438400,1369.656100,2762.928900,1368.717300C2770.387091,1351.016733,2776.538521,1332.793562,2781.333800,1314.194100C2783.078600,1314.501000,2784.833800,1314.781400,2786.630300,1314.932600ZM2430.214100,1464.978800C2304.352400,1454.378200,2211.626500,1335.306700,2223.104700,1199.023400C2234.582900,1062.740500,2345.918800,960.856100,2471.780500,971.456700C2597.643600,982.057700,2690.369200,1101.129100,2678.890300,1237.412400C2667.412100,1373.695700,2556.076800,1475.579700,2430.214100,1464.978800Z" transform="matrix(1 0 0 1 -449.16751098632813 -455.00003051757813)" fill="rgb(191,198,209)" stroke="none" stroke-width="1"/><path id="wavy_bus-25_single-01-converted-path47" d="M2788.613000,1119.808500C2820.214500,1103.568100,2834.001100,1062.869700,2819.406900,1028.902700C2804.811800,994.936100,2767.362300,980.564700,2735.760400,996.804700C2734.108300,997.653400,2732.535200,998.608000,2730.982400,999.584900C2720.736112,984.096034,2709.308900,969.421633,2696.802700,955.692600C2697.952500,954.198200,2699.082700,952.675900,2700.131400,951.053000C2720.201400,920.007400,2735.621200,858.424300,2705.147200,840.158000C2647.308000,805.490300,2617.210600,842.888000,2597.140500,873.932800C2596.112100,875.524800,2595.201200,877.160100,2594.312900,878.806700C2578.156429,871.016600,2561.373251,864.599473,2544.140900,859.623200C2544.450500,857.732300,2544.731900,855.829700,2544.895900,853.885800C2546.672476,834.609831,2540.441569,815.451803,2527.665800,800.908800Q2516.074800,888.949050,2505.960900,977.159100C2613.978500,1004.350600,2689.301200,1113.796300,2678.890300,1237.412400C2670.068300,1342.165300,2602.224400,1426.526600,2514.160300,1455.174300C2514.363000,1466.625100,2514.658200,1478.102200,2514.551700,1489.567700C2514.264400,1520.681600,2512.246300,1551.861200,2510.197300,1583.012500Q2523.013450,1580.422450,2535.524000,1576.816400C2536.123600,1578.589800,2536.748700,1580.355700,2537.496000,1582.096100C2552.090900,1616.062700,2584.699200,1636.714100,2642.843400,1609.427800C2675.008100,1594.333300,2666.531100,1557.254900,2651.935200,1523.288700C2651.173100,1521.514200,2650.312600,1519.824600,2649.429500,1518.158800C2664.055347,1506.714236,2677.775877,1494.157665,2690.468800,1480.601000C2691.836400,1481.825000,2693.229500,1483.028300,2694.714900,1484.140600C2723.155500,1505.437400,2786.957400,1493.481200,2807.027800,1462.433600C2827.098800,1431.386000,2795.836800,1393.007600,2767.397000,1371.709900C2765.940000,1370.619300,2764.438100,1369.655400,2762.928200,1368.715600C2770.386751,1351.015680,2776.538419,1332.793064,2781.333800,1314.194100C2783.079000,1314.502000,2784.834200,1314.782100,2786.629900,1314.931900C2821.295100,1317.853000,2851.959900,1289.789000,2855.121600,1252.253600C2858.282800,1214.719500,2832.743400,1181.922600,2798.078600,1179.004300C2796.282200,1178.852700,2794.504300,1178.834500,2792.733300,1178.846500C2791.116573,1159.707265,2788.099663,1140.712212,2783.706800,1122.013900C2785.352400,1121.339400,2786.994200,1120.640100,2788.613000,1119.808500Z" transform="matrix(1 0 0 1 -449.16751098632813 -455.00003051757813)" fill="rgb(191,198,209)" stroke="none" stroke-width="1"/><path id="wavy_bus-25_single-01-converted-path48" d="M2818.968100,1305.893400C2853.633000,1308.813400,2884.297800,1280.751500,2887.459800,1243.216500C2890.621000,1205.680700,2865.081300,1172.885100,2830.415800,1169.966100C2828.620400,1169.814500,2826.842800,1169.796300,2825.071800,1169.808000C2823.454706,1150.668328,2820.437700,1131.672829,2816.045000,1112.974000C2817.690200,1112.300100,2819.332700,1111.601600,2820.950800,1110.769300C2852.553000,1094.530300,2866.339600,1053.832200,2851.744800,1019.864600C2837.150300,985.897600,2799.700500,971.526000,2768.098600,987.765400C2766.446900,988.615600,2764.873400,989.569200,2763.321000,990.546700C2753.074024,975.057923,2741.646606,960.383323,2729.140600,946.653700C2730.290400,945.159300,2731.421200,943.637100,2732.469600,942.014200C2752.540000,910.969000,2745.755200,868.536300,2717.315000,847.240600C2688.875100,825.943500,2649.548800,833.849100,2629.478700,864.894300C2628.450600,866.486000,2627.540100,868.122600,2626.651800,869.769200C2610.495547,861.978356,2593.712205,855.561205,2576.479500,850.585700C2576.788100,848.694500,2577.070500,846.791500,2577.234100,844.846600C2580.395700,807.311400,2554.856000,774.515900,2520.190800,771.596800C2485.525200,768.677500,2454.861500,796.738000,2451.699500,834.273500C2451.535900,836.218400,2451.495400,838.141600,2451.482700,840.057900C2433.661017,842.081409,2416.041218,845.601027,2398.809800,850.579500C2398.209200,848.807200,2397.585200,847.041300,2396.837800,845.300500C2382.243000,811.334900,2344.793500,796.963100,2313.191300,813.202800C2281.590500,829.441900,2267.803200,870.142400,2282.397600,904.107600C2283.160500,905.883400,2284.020200,907.571900,2284.904300,909.237800C2270.278238,920.682477,2256.557477,933.239146,2243.864300,946.795900C2242.496700,945.572600,2241.105100,944.369700,2239.618300,943.254300C2211.178400,921.958600,2171.852400,929.863500,2151.782300,960.911100C2131.711300,991.959000,2138.497000,1034.389300,2166.936600,1055.686000C2168.393800,1056.777000,2169.895800,1057.740900,2171.405700,1058.680300C2163.947152,1076.380737,2157.795256,1094.603767,2152.999400,1113.203100C2151.255600,1112.895600,2149.499700,1112.616300,2147.703900,1112.465400C2113.038400,1109.545000,2082.373900,1137.606800,2079.212300,1175.142000C2076.051400,1212.677800,2101.589700,1245.472700,2136.255300,1248.392600C2138.051000,1248.544300,2139.828900,1248.562500,2141.599900,1248.550700C2143.217353,1267.690111,2146.234255,1286.685377,2150.626400,1305.384100C2148.981500,1306.057600,2147.339700,1306.757200,2145.720900,1307.587400C2114.118700,1323.828500,2100.332400,1364.526200,2114.926900,1398.493900C2129.522100,1432.460900,2166.972300,1446.830300,2198.573400,1430.591600C2200.224500,1429.742800,2201.798600,1428.789300,2203.351800,1427.811700C2213.598017,1443.300778,2225.024983,1457.975532,2237.530800,1471.705100C2236.381000,1473.199500,2235.250500,1474.721400,2234.201800,1476.344300C2214.131800,1507.389500,2220.916500,1549.822500,2249.356700,1571.118200C2277.797300,1592.414600,2317.122600,1584.510000,2337.193000,1553.464100C2338.221800,1551.872400,2339.132000,1550.235900,2340.020600,1548.589200C2356.176742,1556.379691,2372.959701,1562.797058,2390.191900,1567.773400C2389.883700,1569.664000,2389.601900,1571.567000,2389.437700,1573.511800C2386.276700,1611.046900,2411.815800,1643.842500,2446.481000,1646.761900C2481.146200,1649.681300,2511.811300,1621.620000,2514.971900,1584.084300C2515.136500,1582.140400,2515.176700,1580.216500,2515.188700,1578.300800C2533.010608,1576.277518,2550.630622,1572.757931,2567.862200,1567.779300C2568.462200,1569.551300,2569.087200,1571.317100,2569.833600,1573.057900C2584.429100,1607.023500,2621.879000,1621.394300,2653.480100,1605.155300C2685.081900,1588.916600,2698.869300,1548.216100,2684.274100,1514.251200C2683.510900,1512.475000,2682.651200,1510.786800,2681.767800,1509.119500C2696.394051,1497.675702,2710.114709,1485.119472,2722.807400,1471.562800C2724.174700,1472.786100,2725.566600,1473.989500,2727.053100,1475.101800C2755.493400,1496.398200,2794.819400,1488.495000,2814.889400,1457.447700C2834.960100,1426.400100,2828.175000,1383.968500,2799.735200,1362.670700C2798.277900,1361.581800,2796.776600,1360.617600,2795.266400,1359.678500C2802.724717,1341.978012,2808.876379,1323.754949,2813.672000,1305.155600C2815.416900,1305.462800,2817.172100,1305.742200,2818.968100,1305.893400ZM2462.552300,1455.940300C2336.691000,1445.340000,2243.965000,1326.268500,2255.443200,1189.985300C2266.921100,1053.702200,2378.257700,951.817600,2504.119100,962.418200C2629.980500,973.018800,2722.707100,1092.089900,2711.228500,1228.373500C2699.750300,1364.656500,2588.415000,1466.540500,2462.552300,1455.940300Z" transform="matrix(1 0 0 1 -449.16751098632813 -455.00003051757813)" fill="rgb(255,255,255)" stroke="none" stroke-width="1"/></g></g></g></svg>
